<?xml version="1.0" encoding="utf-8"?>
<!-- Generator: Adobe Illustrator 22.0.1, SVG Export Plug-In . SVG Version: 6.00 Build 0)  -->
<svg version="1.1" id="Layer_1" xmlns="http://www.w3.org/2000/svg" xmlns:xlink="http://www.w3.org/1999/xlink" x="0px" y="0px"
	 viewBox="0 0 470.9 281" style="enable-background:new 0 0 470.9 281;" xml:space="preserve">
<style type="text/css">
	.st0{fill:none;stroke:#FFFFFF;stroke-width:0.5565;stroke-miterlimit:10;}
	.st1{fill:none;stroke:#FFFFFF;stroke-width:0.8263;stroke-miterlimit:10;}
	.st2{font-family:'NeutrafaceText-Bold';}
	.st3{font-size:48.2539px;}
	.st4{fill:#FFFFFF;}
</style>
<g>
	<g>
		<polygon class="st0" points="85.3,95.6 85.3,95.7 113.9,75.8 114.2,76.3 		"/>
		<polygon class="st0" points="85,95.1 85.1,95.2 133.9,70.3 134.2,70.8 		"/>
		<path class="st0" d="M85.2,95.5C85.2,95.5,85.2,95.5,85.2,95.5C85.3,95.6,85.3,95.6,85.2,95.5l46-30.4c0,0,0,0.1,0.1,0.2
			c0.1,0.1,0.2,0.3,0.2,0.4c0.2,0.3,0.3,0.6,0.3,0.6L85.2,95.5z"/>
		<polygon class="st0" points="84.8,95.7 84.8,95.7 173.9,40.9 174.4,41.8 		"/>
		<polygon class="st0" points="84.6,95.7 84.6,95.7 164.3,49.9 164.5,50.2 		"/>
		<polyline class="st0" points="117.4,77.7 165.2,51.7 165.7,52.6 85.1,95.2 85.1,95.3 117.4,77.7 		"/>
		<path class="st0" d="M85.4,95.7C85.4,95.7,85.4,95.8,85.4,95.7l74-54c0,0,0.1,0.2,0.2,0.3c0.1,0.2,0.2,0.3,0.2,0.3L85.4,95.7z"/>
		<polygon class="st0" points="86.3,96.8 85.7,96.1 110.3,71.3 110.9,72 		"/>
		<polygon class="st0" points="85.4,95.8 85.5,95.9 129.1,62.1 129.4,62.6 		"/>
		<path class="st0" d="M86.1,96.6c0,0,0.1,0.1,0.3,0.3c0,0,0.1,0.1,0.1,0.1c0,0,0,0,0.1,0c0,0,0,0,0,0c-0.1-0.1-0.1-0.1-0.1-0.1
			l38.9-39.3c0,0,0.1,0.1,0.1,0.1c0.1,0.1,0.2,0.2,0.3,0.4c0.2,0.3,0.5,0.5,0.5,0.5L86.1,96.6z"/>
		<polygon class="st0" points="85.5,96.5 85.7,96.7 147.4,39.7 148,40.4 		"/>
		<polygon class="st0" points="85.1,96.4 85.1,96.4 155.3,36.4 155.5,36.6 		"/>
		<polygon class="st0" points="85.5,95.9 85.5,95.9 148.6,44.5 149.1,45.2 		"/>
		
			<rect x="79.5" y="82" transform="matrix(0.7058 -0.7084 0.7084 0.7058 -29.2614 93.8691)" class="st0" width="37.7" height="0.4"/>
	</g>
	<g>
		<polygon class="st0" points="182.9,36.2 182.9,36.3 216.7,44.6 216.5,45.2 		"/>
		<polygon class="st0" points="183.1,35.7 183.1,35.7 234,56.1 233.8,56.6 		"/>
		<path class="st0" d="M182.9,36.1C182.9,36.1,182.9,36.1,182.9,36.1c0,0.1,0,0.1,0,0.1l53.2,14.4c0,0,0,0.1-0.1,0.2
			c0,0.1-0.1,0.3-0.1,0.4c-0.1,0.3-0.2,0.6-0.2,0.6L182.9,36.1z"/>
		<polygon class="st0" points="182.6,35.9 182.5,35.9 282.5,66.8 282.1,67.8 		"/>
		<polygon class="st0" points="182.4,35.7 182.4,35.7 269.4,65.5 269.3,65.8 		"/>
		<polyline class="st0" points="217.5,48.5 268.6,67.3 268.2,68.3 183.1,35.8 183,35.8 217.5,48.5 		"/>
		<path class="st0" d="M182.9,36.3C182.9,36.3,182.9,36.4,182.9,36.3l89.4,20.1c0,0,0,0.2-0.1,0.4c0,0.2-0.1,0.4-0.1,0.4L182.9,36.3
			z"/>
		<polygon class="st0" points="182.7,37.7 182.8,36.8 217.6,39 217.5,39.8 		"/>
		<polygon class="st0" points="182.8,36.4 182.8,36.5 237,47.1 236.9,47.6 		"/>
		<path class="st0" d="M182.7,37.5c0,0,0,0.2,0,0.4c0,0,0,0.1,0,0.1c0,0,0,0,0,0.1c0,0,0,0.1,0,0c0-0.1,0-0.2,0-0.2l55.2,3.4
			c0,0,0,0.1,0,0.2c0,0.1,0,0.3-0.1,0.5c0,0.3-0.1,0.7-0.1,0.7L182.7,37.5z"/>
		<polygon class="st0" points="182.3,36.9 182.3,37.2 265.9,46 265.7,47 		"/>
		<polygon class="st0" points="182.2,36.6 182.2,36.6 273.6,49.8 273.5,50.1 		"/>
		<polygon class="st0" points="182.8,36.5 182.8,36.6 263.1,50 262.9,50.9 		"/>
		
			<rect x="201.4" y="18.3" transform="matrix(6.413598e-02 -0.9979 0.9979 6.413598e-02 151.6272 236.0026)" class="st0" width="0.4" height="37.7"/>
	</g>
	<g>
		<path class="st0" d="M281.6,59.8c0,0-0.1,0.5,0,0.5l50.7,45.5l-0.3,3.4L281.6,59.8z"/>
		<polygon class="st0" points="282,56.5 281.9,56.7 357,173.1 356.5,176.2 		"/>
		<path class="st0" d="M281.6,59c0,0,0,0.2,0,0.4c0,0.2-0.1,0.3,0,0.3l79.5,79.5c0,0,0,0.5-0.1,1.3c-0.1,0.8-0.2,1.8-0.3,2.8
			c-0.2,2-0.4,4-0.4,4L281.6,59z"/>
		<polygon class="st0" points="281.1,57.8 281.1,58.1 429.8,230.8 429.1,236.7 		"/>
		<polygon class="st0" points="280.9,56.7 280.9,56.8 409.8,225 409.6,226.7 		"/>
		<path class="st0" d="M332.8,129.5l75.6,106.9l-0.7,5.8L281.9,57.1c0,0-0.1,0.3-0.1,0.3L332.8,129.5"/>
		<path class="st0" d="M281.5,60.6c0,0,0,0.2,0,0.2l134.3,107.9c0,0-0.1,1.1-0.2,2.2c-0.1,1.1-0.2,2.2-0.2,2.2L281.5,60.6z"/>
		<path class="st0" d="M281.4,61.3c0,0,0,0.3,0,0.3l81.7,55.8l-0.3,3.3L281.4,61.3z"/>
		<polygon class="st0" points="280.6,64.3 280.4,66.1 407.7,106.1 407.4,111.9 		"/>
		<polygon class="st0" points="280.3,62.2 280.3,62.3 419,128 418.9,129.8 		"/>
		<path class="st0" d="M281.4,61.9c0,0,0,0.3,0,0.3l121.4,69l-0.4,5.4L281.4,61.9z"/>
	</g>
	<g>
		<polygon class="st0" points="42.2,210.9 42.3,210.9 51,177.2 51.6,177.4 		"/>
		<polygon class="st0" points="41.6,210.7 41.7,210.7 62.6,160 63.1,160.2 		"/>
		<path class="st0" d="M42.1,210.8C42.1,210.8,42.1,210.8,42.1,210.8c0.1,0,0.1,0,0.1,0l15-53c0,0,0.1,0,0.2,0.1
			c0.1,0,0.3,0.1,0.4,0.1c0.3,0.1,0.6,0.2,0.6,0.2L42.1,210.8z"/>
		<polygon class="st0" points="41.8,211.2 41.9,211.2 74,111.7 74.9,112 		"/>
		<polygon class="st0" points="41.7,211.4 41.7,211.4 72.5,124.8 72.8,124.9 		"/>
		<polyline class="st0" points="54.9,176.4 74.3,125.5 75.3,125.9 41.8,210.7 41.8,210.7 54.9,176.4 		"/>
		<path class="st0" d="M42.3,210.9C42.3,210.9,42.4,210.9,42.3,210.9l21.1-89.1c0,0,0.2,0,0.4,0.1c0.2,0,0.4,0.1,0.4,0.1L42.3,210.9
			z"/>
		<polygon class="st0" points="43.7,211.1 42.8,211 45.4,176.2 46.2,176.3 		"/>
		<polygon class="st0" points="42.4,210.9 42.5,211 53.7,156.9 54.2,157.1 		"/>
		<path class="st0" d="M43.5,211.1c0,0,0.2,0,0.4,0c0,0,0.1,0,0.1,0c0,0,0,0,0.1,0c0,0,0.1,0,0,0c-0.1,0-0.2,0-0.2,0l4-55.1
			c0,0,0.1,0,0.2,0c0.1,0,0.3,0,0.5,0.1c0.3,0,0.7,0.1,0.7,0.1L43.5,211.1z"/>
		<polygon class="st0" points="42.9,211.5 43.2,211.5 53,128 53.9,128.2 		"/>
		<polygon class="st0" points="42.5,211.6 42.6,211.6 56.9,120.4 57.2,120.4 		"/>
		<polygon class="st0" points="42.5,211 42.6,211 57,130.9 57.8,131 		"/>
		<polygon class="st0" points="42.2,211 41.8,210.9 44.5,173.3 44.9,173.3 		"/>
	</g>
	<path class="st0" d="M305.7,47.3c-0.1,21.2-17.3,38.3-38.5,38.3c-21.2-0.1-38.3-17.3-38.3-38.5c0.1-21.2,17.3-38.3,38.5-38.3
		C288.6,8.9,305.7,26.1,305.7,47.3z"/>
	<path class="st0" d="M184.3,38.8C184.2,60,167,77.1,145.7,77.1c-21.2-0.1-38.3-17.3-38.3-38.5c0.1-21.2,17.3-38.3,38.5-38.3
		C167.2,0.3,184.3,17.6,184.3,38.8z"/>
	<path class="st0" d="M109.4,116.6c-0.1,21.2-17.3,38.3-38.5,38.3c-21.2-0.1-38.3-17.3-38.3-38.5C32.7,95.1,49.9,78,71.1,78.1
		C92.4,78.1,109.5,95.4,109.4,116.6z"/>
	<path class="st0" d="M74.7,209.2c7.4,19.9-2.7,42-22.6,49.4c-19.9,7.4-42-2.7-49.4-22.6c-7.4-19.9,2.7-42,22.6-49.4
		C45.2,179.2,67.3,189.3,74.7,209.2z"/>
	<ellipse transform="matrix(0.3439 -0.939 0.939 0.3439 56.056 564.8812)" class="st0" cx="432.2" cy="242.3" rx="38.4" ry="38.4"/>
</g>
<text transform="matrix(1 0 0 1 109.4171 217.5074)" class="st1 st2 st3">interact</text>
<g>
	<text transform="matrix(1 0 0 1 274.962 217.5079)" class="st4 st2 st3">ml</text>
</g>
</svg>
