<?xml version="1.0" encoding="utf-8"?>
<!-- Generator: Adobe Illustrator 22.0.1, SVG Export Plug-In . SVG Version: 6.00 Build 0)  -->
<svg version="1.1" id="Layer_1" xmlns="http://www.w3.org/2000/svg" xmlns:xlink="http://www.w3.org/1999/xlink" x="0px" y="0px"
	 viewBox="0 0 235.5 140.5" style="enable-background:new 0 0 235.5 140.5;" xml:space="preserve">
<style type="text/css">
	.st0{fill:none;stroke:#FFFFFF;stroke-width:0.2782;stroke-miterlimit:10;}
	.st1{fill:none;stroke:#FFFFFF;stroke-width:0.4131;stroke-miterlimit:10;}
	.st2{font-family:'NeutrafaceText-Bold';}
	.st3{font-size:24.127px;}
	.st4{fill:#FFFFFF;}
</style>
<g>
	<g>
		<polygon class="st0" points="42.7,47.8 42.7,47.8 57,37.9 57.1,38.1 		"/>
		<polygon class="st0" points="42.5,47.6 42.5,47.6 67,35.1 67.1,35.4 		"/>
		<path class="st0" d="M42.6,47.8C42.6,47.8,42.6,47.8,42.6,47.8C42.6,47.8,42.6,47.8,42.6,47.8l23-15.2c0,0,0,0,0.1,0.1
			c0,0.1,0.1,0.1,0.1,0.2c0.1,0.1,0.2,0.3,0.2,0.3L42.6,47.8z"/>
		<polygon class="st0" points="42.4,47.8 42.4,47.8 87,20.5 87.2,20.9 		"/>
		<polygon class="st0" points="42.3,47.8 42.3,47.8 82.2,25 82.2,25.1 		"/>
		<polyline class="st0" points="58.7,38.9 82.6,25.8 82.8,26.3 42.5,47.6 42.6,47.6 58.7,38.9 		"/>
		<path class="st0" d="M42.7,47.9C42.7,47.9,42.7,47.9,42.7,47.9l37-27c0,0,0.1,0.1,0.1,0.2c0.1,0.1,0.1,0.2,0.1,0.2L42.7,47.9z"/>
		<polygon class="st0" points="43.2,48.4 42.8,48.1 55.1,35.7 55.4,36 		"/>
		<polygon class="st0" points="42.7,47.9 42.7,47.9 64.6,31.1 64.7,31.3 		"/>
		<path class="st0" d="M43.1,48.3c0,0,0.1,0.1,0.1,0.1c0,0,0,0,0.1,0c0,0,0,0,0,0c0,0,0,0,0,0c0,0-0.1-0.1-0.1-0.1l19.4-19.6
			c0,0,0,0,0.1,0.1c0,0,0.1,0.1,0.2,0.2c0.1,0.1,0.2,0.3,0.2,0.3L43.1,48.3z"/>
		<polygon class="st0" points="42.7,48.3 42.8,48.4 73.7,19.9 74,20.2 		"/>
		<polygon class="st0" points="42.5,48.2 42.6,48.2 77.7,18.2 77.8,18.3 		"/>
		<polygon class="st0" points="42.8,48 42.8,48 74.3,22.2 74.6,22.6 		"/>
		
			<rect x="39.8" y="41" transform="matrix(0.7058 -0.7084 0.7084 0.7058 -14.6307 46.9345)" class="st0" width="18.9" height="0.2"/>
	</g>
	<g>
		<polygon class="st0" points="91.4,18.1 91.4,18.1 108.3,22.3 108.3,22.6 		"/>
		<polygon class="st0" points="91.5,17.8 91.5,17.8 117,28 116.9,28.3 		"/>
		<path class="st0" d="M91.5,18C91.5,18,91.5,18,91.5,18C91.5,18.1,91.5,18.1,91.5,18l26.6,7.3c0,0,0,0,0,0.1c0,0.1,0,0.1-0.1,0.2
			c-0.1,0.2-0.1,0.3-0.1,0.3L91.5,18z"/>
		<polygon class="st0" points="91.3,17.9 91.3,17.9 141.2,33.4 141.1,33.9 		"/>
		<polygon class="st0" points="91.2,17.8 91.2,17.8 134.7,32.7 134.6,32.9 		"/>
		<polyline class="st0" points="108.8,24.3 134.3,33.7 134.1,34.1 91.5,17.9 91.5,17.9 108.8,24.3 		"/>
		<path class="st0" d="M91.4,18.2C91.4,18.2,91.4,18.2,91.4,18.2l44.7,10c0,0,0,0.1,0,0.2c0,0.1,0,0.2,0,0.2L91.4,18.2z"/>
		<polygon class="st0" points="91.4,18.9 91.4,18.4 108.8,19.5 108.8,19.9 		"/>
		<polygon class="st0" points="91.4,18.2 91.4,18.2 118.5,23.5 118.4,23.8 		"/>
		<path class="st0" d="M91.3,18.7c0,0,0,0.1,0,0.2c0,0,0,0,0,0.1c0,0,0,0,0,0c0,0,0,0,0,0c0-0.1,0-0.1,0-0.1l27.6,1.7c0,0,0,0,0,0.1
			c0,0.1,0,0.2,0,0.2c0,0.2,0,0.3,0,0.3L91.3,18.7z"/>
		<polygon class="st0" points="91.2,18.4 91.1,18.6 132.9,23 132.9,23.5 		"/>
		<polygon class="st0" points="91.1,18.3 91.1,18.3 136.8,24.9 136.8,25.1 		"/>
		<polygon class="st0" points="91.4,18.3 91.4,18.3 131.5,25 131.5,25.5 		"/>
		
			<rect x="100.7" y="9.1" transform="matrix(6.413598e-02 -0.9979 0.9979 6.413598e-02 75.8136 118.0013)" class="st0" width="0.2" height="18.9"/>
	</g>
	<g>
		<path class="st0" d="M140.8,29.9c0,0,0,0.2,0,0.2l25.3,22.8l-0.2,1.7L140.8,29.9z"/>
		<polygon class="st0" points="141,28.2 141,28.4 178.5,86.5 178.3,88.1 		"/>
		<path class="st0" d="M140.8,29.5c0,0,0,0.1,0,0.2c0,0.1,0,0.2,0,0.2l39.7,39.7c0,0,0,0.3-0.1,0.6c0,0.4-0.1,0.9-0.1,1.4
			c-0.1,1-0.2,2-0.2,2L140.8,29.5z"/>
		<polygon class="st0" points="140.5,28.9 140.5,29 214.9,115.4 214.6,118.4 		"/>
		<polygon class="st0" points="140.4,28.4 140.4,28.4 204.9,112.5 204.8,113.4 		"/>
		<polyline class="st0" points="166.4,64.8 204.2,118.2 203.8,121.1 140.9,28.6 140.9,28.7 166.4,64.8 		"/>
		<path class="st0" d="M140.7,30.3c0,0,0,0.1,0,0.1l67.2,53.9c0,0,0,0.6-0.1,1.1c-0.1,0.6-0.1,1.1-0.1,1.1L140.7,30.3z"/>
		<polygon class="st0" points="140.7,30.6 140.7,30.8 181.5,58.7 181.4,60.3 		"/>
		<polygon class="st0" points="140.3,32.1 140.2,33 203.9,53 203.7,55.9 		"/>
		<polygon class="st0" points="140.2,31.1 140.2,31.1 209.5,64 209.4,64.9 		"/>
		<path class="st0" d="M140.7,31c0,0,0,0.1,0,0.1l60.7,34.5l-0.2,2.7L140.7,31z"/>
	</g>
	<g>
		<polygon class="st0" points="21.1,105.4 21.1,105.5 25.5,88.6 25.8,88.7 		"/>
		<polygon class="st0" points="20.8,105.3 20.8,105.3 31.3,80 31.6,80.1 		"/>
		<path class="st0" d="M21,105.4C21,105.4,21,105.4,21,105.4C21.1,105.4,21.1,105.4,21,105.4l7.6-26.5c0,0,0,0,0.1,0
			c0.1,0,0.1,0,0.2,0.1c0.2,0.1,0.3,0.1,0.3,0.1L21,105.4z"/>
		<polygon class="st0" points="20.9,105.6 20.9,105.6 37,55.8 37.5,56 		"/>
		<polygon class="st0" points="20.8,105.7 20.8,105.7 36.3,62.4 36.4,62.4 		"/>
		<polyline class="st0" points="27.5,88.2 37.2,62.8 37.6,63 20.9,105.4 20.9,105.4 27.5,88.2 		"/>
		<path class="st0" d="M21.2,105.5C21.2,105.5,21.2,105.5,21.2,105.5l10.6-44.6c0,0,0.1,0,0.2,0c0.1,0,0.2,0,0.2,0L21.2,105.5z"/>
		<polygon class="st0" points="21.9,105.5 21.4,105.5 22.7,88.1 23.1,88.1 		"/>
		<polygon class="st0" points="21.2,105.5 21.2,105.5 26.8,78.5 27.1,78.5 		"/>
		<path class="st0" d="M21.7,105.5c0,0,0.1,0,0.2,0c0,0,0,0,0.1,0c0,0,0,0,0,0c0,0,0,0,0,0c-0.1,0-0.1,0-0.1,0l2-27.6c0,0,0,0,0.1,0
			c0.1,0,0.2,0,0.2,0c0.2,0,0.3,0,0.3,0L21.7,105.5z"/>
		<polygon class="st0" points="21.4,105.7 21.6,105.8 26.5,64 27,64.1 		"/>
		<polygon class="st0" points="21.3,105.8 21.3,105.8 28.4,60.2 28.6,60.2 		"/>
		<polygon class="st0" points="21.3,105.5 21.3,105.5 28.5,65.4 28.9,65.5 		"/>
		<polygon class="st0" points="21.1,105.5 20.9,105.5 22.3,86.7 22.5,86.7 		"/>
	</g>
	<path class="st0" d="M152.8,23.7c0,10.6-8.7,19.2-19.3,19.1c-10.6,0-19.2-8.7-19.1-19.3c0-10.6,8.7-19.2,19.3-19.1
		C144.3,4.4,152.9,13.1,152.8,23.7z"/>
	<path class="st0" d="M92.1,19.4c0,10.6-8.7,19.2-19.3,19.1c-10.6,0-19.2-8.7-19.1-19.3C53.8,8.7,62.4,0.1,73,0.1
		C83.6,0.2,92.2,8.8,92.1,19.4z"/>
	<path class="st0" d="M54.7,58.3c0,10.6-8.7,19.2-19.3,19.1c-10.6,0-19.2-8.7-19.1-19.3C16.3,47.6,25,39,35.6,39
		C46.2,39.1,54.7,47.7,54.7,58.3z"/>
	<path class="st0" d="M37.3,104.6c3.7,9.9-1.4,21-11.3,24.7C16.1,133,5,127.9,1.3,118c-3.7-9.9,1.4-21,11.3-24.7
		C22.6,89.6,33.6,94.6,37.3,104.6z"/>
	<ellipse transform="matrix(0.3439 -0.939 0.939 0.3439 28.028 282.4406)" class="st0" cx="216.1" cy="121.2" rx="19.2" ry="19.2"/>
</g>
<text transform="matrix(1 0 0 1 54.7088 108.7531)" class="st1 st2 st3">interact</text>
<g>
	<text transform="matrix(1 0 0 1 137.4812 108.754)" class="st4 st2 st3">ml</text>
</g>
</svg>
